<?xml version="1.0" encoding="utf-8"?>
<!-- Generator: Adobe Illustrator 15.1.0, SVG Export Plug-In . SVG Version: 6.00 Build 0)  -->
<!DOCTYPE svg PUBLIC "-//W3C//DTD SVG 1.1//EN" "http://www.w3.org/Graphics/SVG/1.1/DTD/svg11.dtd">
<svg version="1.1" id="Layer_1" xmlns="http://www.w3.org/2000/svg" xmlns:xlink="http://www.w3.org/1999/xlink" x="0px" y="0px"
	 width="56.69px" height="56.69px" viewBox="0 0 56.69 56.69" enable-background="new 0 0 56.69 56.69" xml:space="preserve">
<path d="M50.164,12.546l-6.02-6.02c-0.832-0.833-1.938-1.292-3.115-1.292s-2.283,0.458-3.115,1.291L9.689,34.838L5.234,51.455
	l16.734-4.482l28.194-28.196c0.834-0.833,1.295-1.939,1.295-3.116S50.996,13.378,50.164,12.546z M11.999,35.354l21.353-21.435
	l9.422,9.42L21.379,44.734L11.999,35.354z M11.103,37.287l8.304,8.303l-6.598,1.766l-3.475-3.475L11.103,37.287z M48.748,17.362
	l-3.033,3.035l-9.426-9.42l3.041-3.038c0.906-0.91,2.492-0.909,3.4,0l6.02,6.021c0.455,0.454,0.707,1.058,0.707,1.7
	S49.205,16.907,48.748,17.362z"/>
</svg>
