<?xml version="1.0" encoding="utf-8"?>
<!-- Generator: Adobe Illustrator 15.1.0, SVG Export Plug-In . SVG Version: 6.00 Build 0)  -->
<!DOCTYPE svg PUBLIC "-//W3C//DTD SVG 1.1//EN" "http://www.w3.org/Graphics/SVG/1.1/DTD/svg11.dtd">
<svg version="1.1" id="Layer_1" xmlns="http://www.w3.org/2000/svg" xmlns:xlink="http://www.w3.org/1999/xlink" x="0px" y="0px"
	 width="56.689px" height="56.689px" viewBox="0 0 56.689 56.689" enable-background="new 0 0 56.689 56.689" xml:space="preserve">
<path d="M14.624,28.345V10.22c0-0.552-0.447-1-1-1c-0.554,0-1,0.448-1,1v18.174c-3.204,0.552-5.651,3.344-5.651,6.702
	c0,3.359,2.447,6.152,5.651,6.705v4.67c0,0.553,0.446,1,1,1c0.553,0,1-0.447,1-1V41.85c3.357-0.418,5.969-3.283,5.969-6.754
	C20.593,31.627,17.982,28.762,14.624,28.345z M13.782,39.906c-2.652,0-4.811-2.157-4.811-4.811c0-2.65,2.157-4.809,4.811-4.809
	c2.652,0,4.811,2.157,4.811,4.809C18.593,37.748,16.435,39.906,13.782,39.906z M43.874,24.365V10.22c0-0.552-0.447-1-1-1
	c-0.554,0-1,0.448-1,1v14.154c-3.266,0.5-5.776,3.318-5.776,6.721s2.512,6.223,5.776,6.725v8.65c0,0.553,0.446,1,1,1
	c0.553,0,1-0.447,1-1v-8.64c3.298-0.474,5.844-3.31,5.844-6.734S47.172,24.836,43.874,24.365z M42.907,35.906
	c-2.652,0-4.811-2.157-4.811-4.811c0-2.651,2.157-4.808,4.811-4.808c2.652,0,4.811,2.156,4.811,4.808
	C47.718,33.748,45.56,35.906,42.907,35.906z M29.249,13.745V10.22c0-0.552-0.447-1-1-1c-0.554,0-1,0.448-1,1v3.555
	c-3.234,0.527-5.713,3.332-5.713,6.712c0,3.382,2.479,6.188,5.713,6.714v19.271c0,0.553,0.446,1,1,1c0.553,0,1-0.447,1-1V27.23
	c3.327-0.444,5.904-3.295,5.904-6.743C35.154,17.04,32.576,14.189,29.249,13.745z M28.346,25.296c-2.652,0-4.81-2.158-4.81-4.811
	c0-2.651,2.156-4.809,4.81-4.809c2.651,0,4.809,2.157,4.809,4.809C33.155,23.138,30.997,25.296,28.346,25.296z"/>
</svg>
